<?xml version="1.0" standalone="no"?><!DOCTYPE svg PUBLIC "-//W3C//DTD SVG 1.1//EN" "http://www.w3.org/Graphics/SVG/1.1/DTD/svg11.dtd"><svg t="1589923771804" class="icon" viewBox="0 0 1024 1024" version="1.1" xmlns="http://www.w3.org/2000/svg" p-id="48750" xmlns:xlink="http://www.w3.org/1999/xlink" width="200" height="200"><defs><style type="text/css"></style></defs><path d="M568.2 239.3l-71.3 139.1c-11.9 23.2-12.9 50.4-2.6 74.4 10.3 24 30.6 42 55.7 49.4l199.5 58.7-286.7 212.2 58.1-90.9c14.7-23.1 17.9-51.1 8.6-76.8-9.3-25.7-29.6-45.3-55.7-53.6l-195.6-62.4 290-250.1M695 53.6c-5.3 0-10.7 1.8-15.6 6L183.7 487.3c-14.3 12.3-9.5 35.5 8.4 41.2l262.5 83.7c15.1 4.8 21.5 22.6 13 35.9l-173 270.5c-11.3 17.6 3.2 37.3 20.3 37.3 4.7 0 9.7-1.5 14.3-4.9l521.4-386.1c16-11.8 11.5-36.8-7.5-42.5l-275.2-81c-14.5-4.3-21.5-20.7-14.6-34.1L716.5 88.9c9.2-17.8-5.3-35.3-21.5-35.3z" fill="#666666" p-id="48751"></path></svg>