<?xml version="1.0" standalone="no"?><!DOCTYPE svg PUBLIC "-//W3C//DTD SVG 1.1//EN" "http://www.w3.org/Graphics/SVG/1.1/DTD/svg11.dtd"><svg t="1589859908591" class="icon" viewBox="0 0 1024 1024" version="1.1" xmlns="http://www.w3.org/2000/svg" p-id="8312" xmlns:xlink="http://www.w3.org/1999/xlink" width="200" height="200"><defs><style type="text/css"></style></defs><path d="M953.7 586.7L516.6 65.8h-9.1L70.3 586.7l30.6 25.7 51-60.8v406.6h720V551.6l51 60.8 30.8-25.7zM832 918.2H192V503.9l320-381.4 320 381.4v414.3z m-200-220v220H392v-220h240m40-40H352v300h320v-300z m-40-37.9v38H392v-38h240m40-40H352v118h320v-118z m174.7-446.8v271l-40-46.2V173.5h-160l-34.6-40h234.6zM562 414.5H462v-40h100v40z" fill="" p-id="8313"></path></svg>