<?xml version="1.0" standalone="no"?><!DOCTYPE svg PUBLIC "-//W3C//DTD SVG 1.1//EN" "http://www.w3.org/Graphics/SVG/1.1/DTD/svg11.dtd"><svg t="1589923722635" class="icon" viewBox="0 0 1024 1024" version="1.1" xmlns="http://www.w3.org/2000/svg" p-id="47698" xmlns:xlink="http://www.w3.org/1999/xlink" width="200" height="200"><defs><style type="text/css"></style></defs><path d="M273.299394 541.928727c197.694061-111.553939 355.498667-111.553939 473.444848 0C923.648 709.244121 514.482424 908.986182 421.500121 857.863758 328.517818 806.756848 239.507394 699.329939 239.507394 640.667152c0-39.098182 11.264-72.005818 33.792-98.738425z" fill="#F8D02D" p-id="47699"></path><path d="M742.663758 660.728242l-0.682667 3.723637c-0.775758 3.537455-1.737697 7.183515-2.761697 10.81406l-1.132606 3.878788c-1.039515 3.397818-2.172121 6.671515-3.382303 10.053818l-1.908364 4.856243c-1.117091 2.947879-2.420364 5.880242-3.630545 8.73503-0.946424 1.985939-1.892848 3.987394-2.854788 5.895758l-1.815273 3.61503c-0.698182 1.303273-1.303273 2.684121-2.07903 4.080485-2.172121 4.06497-4.670061 8.22303-7.959273 13.405091-3.55297 5.461333-7.617939 11.077818-12.381091 16.973576l-1.892848 2.249697c-4.499394 5.445818-8.843636 10.20897-14.118788 15.670303-4.840727 4.840727-10.038303 9.603879-15.235879 13.839515l-2.947879 2.327272c-4.313212 3.475394-8.812606 6.857697-13.405091 10.053819l-4.67006 3.10303c-4.763152 3.118545-9.774545 6.159515-14.972121 9.091879l-3.289213 1.908363a29.851152 29.851152 0 0 1-3.289212 1.551516c-1.396364 0.620606-2.777212 1.303273-4.15806 2.001454l-3.103031 1.551515c-3.134061 1.551515-6.159515 3.118545-9.371151 4.421818-3.273697 1.396364-6.656 2.59103-10.022788 3.801213l-6.671515 2.513454c-1.473939 0.512-2.854788 1.117091-4.499394 1.644606-4.592485 1.551515-9.262545 2.684121-15.235879 4.235636l-3.723636 1.039516c-0.946424 0.263758-1.892848 0.527515-3.025455 0.775757-5.12 1.210182-10.20897 2.07903-15.499636 2.947879l-3.196121 0.527515c-1.396364 0.248242-2.777212 0.512-4.158061 0.682667-4.670061 0.620606-9.340121 1.039515-14.180848 1.396363l-3.289213 0.248243c-2.07903 0.170667-4.080485 0.341333-6.066424 0.434424-2.420364 0.093091-4.840727 0.093091-7.276606 0.093091h-9.262545c-2.420364 0-4.840727 0-7.183515-0.093091-2.063515-0.093091-4.142545-0.263758-6.221576-0.434424l-3.211637-0.263758c-4.654545-0.341333-9.340121-0.682667-14.010181-1.380848l-7.540364-1.303273a344.591515 344.591515 0 0 1-15.406546-2.854788c-1.117091-0.248242-2.249697-0.589576-3.537454-0.930909l-3.987394-1.05503c-5.011394-1.303273-9.69697-2.513455-14.537697-4.06497-1.396364-0.434424-2.684121-0.961939-4.763151-1.737697l-7.090425-2.59103c-3.118545-1.132606-6.237091-2.249697-9.262545-3.55297-3.211636-1.287758-6.237091-2.854788-10.131394-4.840727l-6.826667-3.289212a9.153939 9.153939 0 0 0-1.923879-0.775758l-4.747636-2.777212a212.371394 212.371394 0 0 1-14.630788-8.921212l-4.67006-3.196121a209.237333 209.237333 0 0 1-13.498182-10.115879l-2.606546-2.001455c-5.445818-4.499394-10.643394-9.262545-16.44606-15.049697-4.499394-4.499394-8.828121-9.355636-13.156849-14.630787l-1.892848-2.249697a227.048727 227.048727 0 0 1-11.776-15.84097l-1.396364-2.327273a219.508364 219.508364 0 0 1-7.338667-12.303515c-0.775758-1.473939-1.56703-3.025455-2.342787-4.57697l-1.551516-3.040969c-0.961939-1.892848-2.001455-3.894303-2.870303-5.895758-1.287758-2.932364-2.497939-5.864727-3.723636-8.905697-0.589576-1.551515-1.210182-3.10303-1.815273-4.763151-1.210182-3.366788-2.327273-6.671515-3.366788-9.945213l-1.210181-4.064969a132.856242 132.856242 0 0 1-2.684122-10.472728l-0.775757-3.987393c-0.698182-3.537455-1.396364-7.090424-2.001455-10.907152l-0.605091-4.933818c-0.341333-3.10303-0.775758-6.314667-0.946424-9.340121-0.170667-2.249697-0.170667-4.499394-0.263757-6.826667l-0.263758-7.897212c0-5.182061 0.263758-10.302061 0.698182-14.78594l1.473939-12.474181c0.434424-3.55297 0.868848-7.183515 1.47394-10.984728 0.418909-2.684121 0.930909-5.368242 1.722181-9.184969l0.775758-3.723637C310.954667 420.305455 466.571636 243.820606 509.936485 196.995879c43.364848 46.824727 198.981818 223.309576 230.663757 372.689454l0.93091 4.592485c0.620606 2.761697 1.132606 5.538909 1.660121 8.378182 0.605091 3.646061 1.039515 7.292121 1.473939 10.829576l1.396364 12.039757c0.418909 4.918303 0.589576 10.038303 0.682666 15.142788l-0.263757 8.657455c-0.093091 1.985939-0.093091 4.06497-0.263758 6.144-0.155152 2.854788-0.512 5.616485-0.868848 8.486788l-0.682667 6.050909c-0.527515 3.55297-1.210182 7.105939-2.001454 10.736485m59.112727-57.902546l-0.806788-7.881697c-0.170667-1.318788-0.356848-2.730667-0.713697-5.12-0.527515-4.623515-1.148121-9.309091-1.861818-13.746424-0.527515-3.444364-1.241212-6.997333-1.939394-10.457212l-1.070546-5.12c-17.454545-82.137212-67.149576-178.082909-147.766303-285.106424C589.110303 197.771636 534.186667 141.606788 531.378424 138.752c0 0-3.10303-2.823758-6.20606-5.135515a25.258667 25.258667 0 0 0-30.471758 0.093091c-3.10303 2.296242-6.206061 5.228606-7.090424 6.112969-5.849212 5.926788-58.476606 60.245333-115.277576 135.633455C291.731394 382.49503 241.943273 478.378667 224.659394 560.050424l-1.163636 5.585455c-0.698182 3.537455-1.411879 7.074909-1.939394 10.27103-0.791273 4.701091-1.411879 9.386667-1.861819 13.544727l-0.170666 1.520485-0.543031 3.894303-0.884363 8.595394c-0.527515 6.283636-0.884364 12.924121-0.884364 19.48703 0 1.861818 0.093091 3.723636 0.093091 5.399273l0.077576 4.251152c0.093091 3.10303 0.186182 6.11297 0.356848 9.138424 0.263758 4.06497 0.713697 8.22303 1.241212 12.489697l0.713697 6.206061c0.713697 4.592485 1.50497 9.200485 2.482425 13.808484l0.977454 4.871758c1.05503 4.608 2.203152 9.216 3.444364 13.560242 0.54303 1.768727 0.977455 3.537455 1.50497 5.135516a246.194424 246.194424 0 0 0 6.733575 19.145697c1.50497 3.801212 3.10303 7.524848 4.701091 11.155393 1.148121 2.482424 2.389333 4.964848 3.816728 7.804122l2.032484 4.15806c0.884364 1.768727 1.768727 3.630545 2.746182 5.321697 2.916848 5.306182 6.019879 10.627879 9.216 15.499637l0.884364 1.59806c4.608 7.090424 9.650424 14.087758 15.670303 21.612606l2.218667 2.746182c5.492364 6.733576 10.907152 12.675879 17.718303 19.673212 6.11297 6.11297 12.675879 12.039758 19.673212 17.795879l3.009939 2.311758c5.321697 4.251152 10.907152 8.502303 18.075152 13.37406l4.344242 3.00994c5.942303 3.894303 12.055273 7.524848 19.316364 11.605333l3.180606 1.784242c2.125576 1.148121 4.251152 2.110061 6.656 3.258182l4.871757 2.327273c4.344242 2.203152 8.688485 4.328727 13.110303 6.190545 4.251152 1.768727 8.595394 3.366788 12.753455 4.964849l5.942303 2.218666c2.389333 0.868848 4.778667 1.861818 7.168 2.56 6.206061 2.032485 12.489697 3.630545 18.338909 5.135516l3.366788 0.884363c1.768727 0.449939 3.459879 0.977455 5.135515 1.334303 6.562909 1.50497 13.125818 2.653091 18.525091 3.459879l2.746182 0.527515 6.562909 1.070546c5.66303 0.791273 11.419152 1.241212 17.097697 1.675636l3.10303 0.263758a175.522909 175.522909 0 0 0 18.075152 0.791272h9.743515c3.258182 0 6.454303 0 9.743515-0.155151 2.746182-0.108606 5.492364-0.372364 8.331636-0.620606l2.994425-0.279273c5.678545-0.449939 11.434667-0.977455 17.190787-1.675636 2.218667-0.279273 4.344242-0.713697 6.469819-1.070546l2.575515-0.434424c5.66303-0.99297 12.132848-2.048 18.773333-3.55297 2.048-0.434424 3.987394-0.977455 5.849212-1.504969l2.575515-0.713697c6.019879-1.582545 12.31903-3.180606 18.416485-5.135516a114.812121 114.812121 0 0 0 7.183515-2.56l5.942303-2.218666c4.344242-1.598061 8.688485-3.196121 12.924122-4.964849 4.530424-1.954909 8.859152-4.080485 13.203394-6.283636l4.964848-2.404849c1.954909-0.884364 3.894303-1.768727 6.283636-3.10303l4.530425-2.56c6.11297-3.459879 12.210424-7.090424 18.152727-10.984727 1.954909-1.334303 3.894303-2.668606 5.756121-3.909818 5.771636-3.971879 11.357091-8.145455 16.756364-12.474182l1.411879-1.086061 1.954909-1.489454a300.528485 300.528485 0 0 0 19.223272-17.454546l1.241212-1.334303c5.585455-5.585455 10.984727-11.605333 16.647758-18.509575l2.125576-2.668607c6.035394-7.447273 11.077818-14.429091 15.592727-21.426424l0.884364-1.504969c3.366788-5.321697 6.562909-10.550303 9.309091-15.685819 1.05503-2.048 2.125576-3.987394 3.10303-6.019878l1.861818-3.646061 3.723636-7.602424c1.675636-3.723636 3.258182-7.540364 4.778667-11.264l2.389333-6.206061c1.598061-4.344242 3.009939-8.579879 4.251152-12.753454l1.50497-5.135516c1.334303-4.608 2.482424-9.122909 3.552969-13.994666l0.977455-4.608c0.884364-4.608 1.768727-9.216 2.482424-13.653334 0.263758-1.582545 0.434424-3.180606 0.527515-4.592484l0.356849-2.932364c0.434424-3.723636 0.884364-7.524848 1.148121-11.170909 0.170667-2.823758 0.263758-5.66303 0.341333-8.502303l0.093091-4.871758c0.093091-1.861818 0.186182-3.723636 0.093091-5.399273a308.906667 308.906667 0 0 0-1.05503-20.123151" fill="#444444" p-id="47700"></path><path d="M709.538909 588.396606a17.361455 17.361455 0 0 0-6.640485-11.605333 30.021818 30.021818 0 0 0-12.443151-5.988849c-6.392242-1.241212-13.079273 1.024-15.918546 4.732121a16.601212 16.601212 0 0 0-3.444363 12.489697l0.961939 8.238546c0.279273 3.646061 0.465455 7.183515 0.465455 10.72097l-0.186182 5.771636c0 1.582545-0.093091 3.10303-0.186182 4.592485-0.170667 2.048-0.356848 4.080485-0.620606 6.20606l-0.434424 4.080485c-0.356848 2.575515-0.884364 5.042424-1.334303 7.524849l-0.527516 2.746182c-0.527515 2.575515-1.241212 5.057939-1.861818 7.354181l-0.884363 3.025455a111.910788 111.910788 0 0 1-2.404849 7.074909l-1.318788 3.366788a92.827152 92.827152 0 0 1-2.653091 6.299151 79.437576 79.437576 0 0 1-2.947878 6.019879l-1.753213 3.537455c-1.50497 2.746182-3.10303 5.414788-5.228606 8.859151l-0.356848 0.620606c-2.56 3.909818-5.399273 7.881697-8.843636 12.22594l-1.163637 1.427394c-3.10303 3.723636-1.675636 2.653091-5.585454 6.640484-3.366788 3.366788-11.512242 11.170909-15.142788 14.180849l-2.125576 1.675636c-3.10303 2.482424-6.206061 4.778667-9.479758 6.997334l-3.366787 2.311757c-3.366788 2.203152-6.826667 4.251152-10.550303 6.361212l-6.097455 3.211637c-2.218667 1.070545-8.067879 3.987394-10.286545 4.964848-2.311758 0.961939-4.701091 1.861818-7.090425 2.637576l-2.032485 0.713697c-4.344242 1.598061-7.804121 4.701091-9.75903 8.859151a17.454545 17.454545 0 0 0-0.620606 13.203394c2.482424 6.733576 13.389576 15.685818 20.573091 15.685819 2.01697 0 4.06497-0.356848 7.354182-1.598061a133.569939 133.569939 0 0 0 18.245818-7.71103l3.459879-1.675637c1.50497-0.713697 2.994424-1.411879 5.476848-2.746182l1.954909-1.148121c4.251152-2.404848 8.424727-4.964848 12.753455-7.71103l3.723636-2.575515c3.987394-2.746182 7.71103-5.585455 11.434667-8.502303l2.389333-1.861818c4.701091-3.894303 9.122909-7.974788 14.087758-12.939637 3.894303-3.878788 7.617939-8.052364 11.434666-12.660363l1.50497-1.861819c4.158061-5.135515 7.602424-10.007273 11.326061-15.763394a146.680242 146.680242 0 0 0 9.572848-17.020121c0.977455-1.861818 1.861818-3.723636 2.668606-5.585454 1.148121-2.56 2.203152-5.12 3.630546-8.579879l1.318788-3.459879c1.163636-3.009939 2.792727-6.609455 3.677091-9.619394l0.977454-3.366788c0.884364-3.196121 1.024-5.709576 1.815273-8.998788l0.713697-3.180606c0.620606-3.10303 1.241212-6.206061 1.675636-9.464242l0.713697-5.957818c0.263758-2.296242 0.527515-4.608 0.713697-6.826667 0.170667-2.110061 0.170667-4.235636 0.263758-6.190545l0.170666-6.826667c0-4.514909-0.263758-8.936727-0.620606-13.994667l-1.148121-8.936727z" fill="#444444" p-id="47701"></path></svg>