<?xml version="1.0" standalone="no"?><!DOCTYPE svg PUBLIC "-//W3C//DTD SVG 1.1//EN" "http://www.w3.org/Graphics/SVG/1.1/DTD/svg11.dtd"><svg t="1589860069360" class="icon" viewBox="0 0 1024 1024" version="1.1" xmlns="http://www.w3.org/2000/svg" p-id="10851" xmlns:xlink="http://www.w3.org/1999/xlink" width="200" height="200"><defs><style type="text/css"></style></defs><path d="M632.868835 556.338834c-0.033769 6.884804 2.125407 13.039991 6.907317 17.878183 18.671245 18.879999 37.274952 37.838793 56.371892 56.277748 10.334369 9.979282 26.984584 8.983605 37.031405-1.159406 10.094916-10.196223 10.854209-26.629497 0.785899-37.012985-18.48398-19.056008-37.244252-37.865399-56.357566-56.290027-8.283664-7.983835-18.708084-9.193383-29.184693-4.28049C638.19719 536.549116 633.112382 545.028231 632.868835 556.338834z" p-id="10852"></path><path d="M861.035418 719.056799c-1.245364-3.128247-1.152243-5.17179 1.474584-7.248078 1.604544-1.264806 2.945075-2.866281 4.393054-4.329609 20.990057-21.218254 23.092951-50.02944 5.021364-73.717955-25.065885-32.855292-50.359968-65.542762-75.559906-98.29777-43.521213-56.56939-87.024006-113.150036-130.589221-169.684634l-6.769171 6.701632c16.941857-62.773695 9.451256-128.574331-21.383006-186.146561-32.07144-59.882855-85.542258-103.691617-150.564158-123.356492-65.019853-19.664875-133.808542-12.833283-193.690374 19.238157-59.882855 32.07144-103.691617 85.542258-123.356492 150.563134-7.236821 23.927969-10.994402 48.892547-10.987239 73.893964 0.004093 12.474103 0.938372 24.946159 2.793626 37.281091 3.202948 21.296025 7.275707 49.02353 34.94386 49.02353 17.160845 0 31.072693-13.906731 31.072693-31.061436 0-8.760524-3.832282-17.769712-5.166673-26.460652-1.449002-9.43693-2.188852-18.981307-2.210341-28.528754-0.042979-19.071358 2.802836-38.120203 8.323573-56.372915 14.917758-49.323359 48.149627-89.88517 93.575212-114.214275 28.418236-15.220656 59.478649-22.946618 90.830705-22.946618 18.762319 0 37.632085 2.768043 56.097646 8.353248 49.323359 14.917758 89.88517 48.149627 114.214275 93.575212s29.511127 97.606015 14.59337 146.929374c-14.917758 49.323359-48.149627 89.88517-93.575212 114.214275-45.426609 24.328082-97.606015 29.509081-146.929374 14.59337-13.964036-4.223185-27.502377-9.93528-40.158628-17.203824-11.42419-6.560416-21.499663-17.133216-35.46677-17.133216-17.237593 0-31.210839 13.806447-31.210839 30.837332 0 17.896602 16.099676 27.364231 29.638017 35.653011 18.564821 11.366885 38.588877 20.313651 59.423391 26.614148 24.346501 7.363711 49.213865 11.010775 73.952292 11.010775 21.286816 0 42.472324-2.709715 63.133899-8.072863l-4.502547 4.457522c41.632189 32.022321 83.256192 64.054875 124.884288 96.083335 48.165999 37.061081 96.284927 74.186629 144.54814 111.12389 22.603811 17.297968 51.197032 15.685237 71.702042-3.594875 1.163499-1.092891 2.394537-2.118244 5.15951-4.553713 3.031033 15.437597 5.863545 29.469172 8.425903 43.548842 0.273223 1.500167-0.564865 3.801583-1.698688 4.875031-18.550495 17.563004-39.85266 27.535123-65.815985 20.785396-22.023596-5.721305-44.079938-11.658528-65.513086-19.232017-97.638761-34.509978-197.72834-55.063083-301.57857-57.132208-56.140625-1.118474-110.656239 6.274914-163.881464 23.958668-26.109658 8.67252-51.571562 18.86158-75.79936 31.931247-15.737426 8.490372-19.751856 27.571962-8.998955 41.120536 8.373715 10.544147 22.274306 12.811794 35.414581 6.083555 50.587142-25.89988 103.936187-42.700521 160.712285-47.541783 39.83424-3.397377 79.637782-0.953721 119.325689 2.708692 60.139705 5.548366 118.832456 18.312064 176.315658 36.751019 32.1707 10.31902 64.203254 21.125133 96.602152 30.68179 24.279986 7.161097 49.188282 9.701966 74.144674 2.683109 24.058952-6.765077 43.400462-21.237697 61.412698-37.932937 6.756891-6.263657 11.168364-13.706163 12.351306-22.648836 0.973164-7.359618 1.421372-14.937201 0.883113-22.326495C879.078353 768.214383 870.74864 743.414557 861.035418 719.056799zM774.494413 721.338772c-81.224929-62.489216-162.995281-125.400035-245.124813-188.587146 1.382487-0.709151 2.761903-1.427512 4.13518-2.162246 46.620807-24.968671 83.494623-62.911842 106.821911-109.174492 63.142086 82.06711 126.072347 163.859975 188.739619 245.311055C810.915927 684.890652 792.989649 702.828186 774.494413 721.338772z" p-id="10853"></path></svg>