<?xml version="1.0" standalone="no"?><!DOCTYPE svg PUBLIC "-//W3C//DTD SVG 1.1//EN" "http://www.w3.org/Graphics/SVG/1.1/DTD/svg11.dtd"><svg t="1589860490075" class="icon" viewBox="0 0 1024 1024" version="1.1" xmlns="http://www.w3.org/2000/svg" p-id="20021" xmlns:xlink="http://www.w3.org/1999/xlink" width="200" height="200"><defs><style type="text/css"></style></defs><path d="M944.525 269.825h-13.894c-8.522 0-16.765 1.296-24.36 3.797v-10.467c0-43.72-41.498-79.196-92.536-79.196h-2.316c-51.038 0-92.535 35.569-92.535 79.196V466.01H304.56V263.155c0-43.72-41.497-79.196-92.535-79.196h-2.316c-51.038 0-92.535 35.569-92.535 79.196v10.467c-7.595-2.408-15.747-3.705-24.268-3.705H79.01c-38.347 0-69.47 26.584-69.47 59.375V719.44c0 32.79 31.123 59.374 69.47 59.374h13.895c8.521 0 16.765-1.296 24.268-3.705v14.82c0 43.72 41.497 79.197 92.535 79.197h2.316c51.038 0 92.535-35.569 92.535-79.196V588.742h414.231V789.93c0 43.72 41.498 79.196 92.536 79.196h2.315c51.038 0 92.535-35.569 92.535-79.196v-14.82c7.596 2.408 15.747 3.797 24.362 3.797h13.894c38.348 0 69.47-26.584 69.47-59.374V329.384c0-32.975-31.03-59.56-69.378-59.56zM115.97 719.347c0 10.93-10.374 19.823-23.157 19.823H78.919c-12.783 0-23.157-8.893-23.157-19.823V329.2c0-10.93 10.374-19.822 23.157-19.822h13.894c12.783 0 23.157 8.892 23.157 19.822v390.148z m96.055 110.135h-2.316c-25.565 0-46.314-17.785-46.314-39.645V263.063c0-21.86 20.749-39.645 46.314-39.645h2.316c25.565 0 46.314 17.785 46.314 39.645v526.774c-0.093 21.86-20.841 39.645-46.314 39.645zM717.68 549.005H304.56V505.47h413.12v43.535z m142.369 240.832c0 21.86-20.749 39.645-46.314 39.645h-2.316c-25.565 0-46.314-17.785-46.314-39.645V263.063c0-21.86 20.749-39.645 46.314-39.645h2.316c25.565 0 46.314 17.785 46.314 39.645v526.774z m107.633-70.49c0 10.93-10.374 19.823-23.157 19.823h-13.894c-12.782 0-23.157-8.893-23.157-19.823V329.2c0-10.93 10.375-19.822 23.157-19.822h13.894c12.783 0 23.157 8.892 23.157 19.822v390.148z" fill="#2C2C2C" p-id="20022"></path><path d="M813.642 869.219h-2.315c-51.13 0-92.628-35.57-92.628-79.29V588.836H304.653V789.93c0 43.72-41.59 79.289-92.628 79.289h-2.316c-51.13 0-92.627-35.57-92.627-79.29v-14.635c-7.596 2.409-15.747 3.706-24.176 3.706H79.01c-38.347 0-69.563-26.677-69.563-59.467V329.292c0-32.79 31.216-59.467 69.563-59.467h13.895c8.336 0 16.395 1.204 24.176 3.705v-10.282c0-43.72 41.59-79.29 92.627-79.29h2.316c51.13 0 92.628 35.57 92.628 79.29V466.01H718.79V263.155c0-43.72 41.59-79.289 92.628-79.289h2.316c51.13 0 92.628 35.57 92.628 79.29v10.281c7.595-2.5 15.746-3.798 24.268-3.798h13.894c18.619 0 36.033 6.206 49.186 17.414 13.153 11.301 20.378 26.214 20.378 42.239V719.44c0 32.79-31.216 59.467-69.564 59.467h-13.894c-8.151 0-16.302-1.297-24.268-3.798v14.635c-0.093 43.906-41.59 79.475-92.72 79.475zM304.467 588.557h414.417v201.28c0 43.628 41.497 79.104 92.443 79.104h2.315c50.946 0 92.443-35.476 92.443-79.104v-15.006l0.185 0.093c7.966 2.5 16.117 3.798 24.361 3.798h13.894c38.256 0 69.379-26.585 69.379-59.282V329.384c0-32.79-31.03-59.467-69.286-59.467h-13.894c-8.522 0-16.673 1.297-24.361 3.798l-0.186 0.093v-10.653c0-43.627-41.497-79.104-92.442-79.104h-2.316c-50.945 0-92.442 35.477-92.442 79.104v202.948h-414.51V263.155c0-43.627-41.497-79.104-92.442-79.104h-2.316c-50.945 0-92.442 35.477-92.442 79.104v10.653l-0.185-0.093c-7.781-2.5-15.932-3.705-24.269-3.705H78.919c-38.255 0-69.378 26.584-69.378 59.282V719.44c0 32.697 31.123 59.282 69.378 59.282h13.894c8.43 0 16.58-1.204 24.269-3.705l0.185-0.093v15.006c0 43.627 41.497 79.104 92.442 79.104h2.316c50.945 0 92.442-35.477 92.442-79.104V588.557z m509.268 241.017h-2.316c-25.565 0-46.406-17.877-46.406-39.737V263.063c0-21.953 20.841-39.737 46.406-39.737h2.316c25.565 0 46.406 17.877 46.406 39.737v526.774c0 21.86-20.84 39.737-46.406 39.737z m-2.316-606.063c-25.472 0-46.221 17.692-46.221 39.552v526.774c0 21.768 20.749 39.552 46.221 39.552h2.316c25.473 0 46.221-17.692 46.221-39.552V263.063c0-21.768-20.748-39.552-46.221-39.552h-2.316zM212.025 829.574h-2.316c-25.565 0-46.406-17.877-46.406-39.737V263.063c0-21.953 20.841-39.737 46.406-39.737h2.316c25.565 0 46.406 17.877 46.406 39.737v526.774c-0.092 21.86-20.933 39.737-46.406 39.737z m-2.316-606.063c-25.472 0-46.221 17.692-46.221 39.552v526.774c0 21.768 20.749 39.552 46.221 39.552h2.316c25.38 0 46.129-17.692 46.221-39.552V263.063c0-21.768-20.748-39.552-46.221-39.552h-2.316z m734.816 515.751h-13.894c-12.875 0-23.25-8.985-23.25-19.915V329.2c0-11.023 10.468-19.915 23.25-19.915h13.894c12.876 0 23.25 8.985 23.25 19.915v390.148c0 10.93-10.374 19.915-23.25 19.915zM930.631 309.47c-12.69 0-23.064 8.8-23.064 19.73v390.148c0 10.838 10.374 19.73 23.064 19.73h13.894c12.69 0 23.065-8.8 23.065-19.73V329.2c0-10.837-10.375-19.73-23.065-19.73h-13.894zM92.813 739.262H78.919c-12.875 0-23.25-8.985-23.25-19.915V329.2c0-11.023 10.467-19.915 23.25-19.915h13.894c12.875 0 23.25 8.985 23.25 19.915v390.148c0 10.93-10.375 19.915-23.25 19.915zM78.919 309.47c-12.69 0-23.064 8.8-23.064 19.73v390.148c0 10.838 10.374 19.73 23.064 19.73h13.894c12.69 0 23.064-8.8 23.064-19.73V329.2c0-10.837-10.374-19.73-23.064-19.73H78.919z m638.854 239.628H304.467v-43.813h413.398v43.813z m-413.12-0.277h412.934v-43.35H304.653v43.35z" fill="#2C2C2C" p-id="20023"></path></svg>