<?xml version="1.0" encoding="iso-8859-1"?>
<!-- Generator: Adobe Illustrator 19.0.0, SVG Export Plug-In . SVG Version: 6.00 Build 0)  -->
<svg version="1.1" id="Capa_1" xmlns="http://www.w3.org/2000/svg" xmlns:xlink="http://www.w3.org/1999/xlink" x="0px" y="0px"
	 viewBox="0 0 510.425 510.425" style="enable-background:new 0 0 510.425 510.425;" xml:space="preserve">
<g>
	<g>
		<path d="M397.525,319.1c-16.7-16.6-43.6-16.6-60.3,0c-6.9,6.9-11.2,15.9-12.3,25.5l-72.3-72.3c-27.8-27.9-65.9-43.1-105.3-42.2
			c1.1-6.6,2.7-13.1,4.8-19.4c1-2.9,0.2-6-1.9-8.2l-76.8-76.8c-3.1-3.1-8.2-3.1-11.3,0c-3.1,3.1-3.1,8.2,0,11.3l73.4,73.4
			c-2,6.9-3.5,13.9-4.5,21c-7.1,1-14.1,2.5-21,4.5l-73.4-73.4c-3.1-3.1-8.2-3.1-11.3,0c-3.1,3.1-3.1,8.2,0,11.3l76.8,76.8
			c2.1,2.1,5.3,2.9,8.2,1.9c6.3-2.1,12.8-3.7,19.4-4.8c-1,39.4,14.3,77.4,42.1,105.3l72.3,72.3c-23.4,2.6-40.3,23.7-37.7,47.1
			c1.1,9.6,5.4,18.6,12.3,25.5c16.7,16.7,43.7,16.7,60.4,0c14.5-14.5,16.6-37.2,5.1-54.2l10.8-10.8c3.1-3.1,3.1-8.2,0-11.3
			c-3.1-3.1-8.2-3.1-11.3,0l-10.3,10.2l-90.2-90.2c-25.4-25-39-59.7-37.5-95.4c35.7-1.4,70.4,12.1,95.6,37.4l90.2,90.2l-10.3,10.3
			c-3.1,3.2-3,8.2,0.2,11.3c3.1,3,8,3,11.1,0l10.8-10.8c19.5,13.2,46,8.2,59.3-11.3C414.125,356.3,412.025,333.6,397.525,319.1z
			 M275.425,467.8c0,14.7-11.9,26.6-26.6,26.6c-14.7,0-26.6-11.9-26.6-26.6c-0.1-14.7,11.8-26.6,26.6-26.6
			C263.525,441.2,275.425,453.1,275.425,467.8z M386.225,368.2c-10.4,10.4-27.3,10.4-37.7,0c-10.4-10.4-10.4-27.3,0-37.7
			c10.4-10.4,27.3-10.4,37.7,0C396.625,340.9,396.625,357.8,386.225,368.2z"/>
	</g>
</g>
<g>
	<g>
		<path d="M479.025,282.4l-161.6-161.7c-3.1-3.1-8.2-3.1-11.3,0l-2.4,2.4L182.925,2.3c-1.5-1.5-3.5-2.3-5.7-2.3
			c-2.1,0-4.2,0.8-5.7,2.3c-24.2,24.2-24.3,63.5,0,87.8l47.1,47.1c2.5,2.5,6.4,3.1,9.6,1.3c13.1-7.3,29.4-5.8,41,3.8l8.3,6.9
			l-0.9,0.9c-3.1,3.1-3.2,8.2,0,11.3l161.7,161.7c11.2,11.2,29.4,11.3,40.6,0.1l0.1-0.1C490.225,311.8,490.225,293.6,479.025,282.4z
			 M289.025,137.8l-9.5-7.9c-15-12.3-35.5-15.4-53.5-8.1l-43.1-43.1c-15.8-15.8-18-40.7-5.2-59l114.7,114.7L289.025,137.8z
			 M467.725,311.8c-5,5-13,5-18,0c0,0,0,0-0.1-0.1l-156-156l1.3-1.3c0.1-0.1,0.2-0.2,0.2-0.2l14.1-14.2l2.4-2.4l156,156
			C472.725,298.6,472.725,306.8,467.725,311.8z"/>
	</g>
</g>
<g>
</g>
<g>
</g>
<g>
</g>
<g>
</g>
<g>
</g>
<g>
</g>
<g>
</g>
<g>
</g>
<g>
</g>
<g>
</g>
<g>
</g>
<g>
</g>
<g>
</g>
<g>
</g>
<g>
</g>
</svg>
