<?xml version="1.0" standalone="no"?><!DOCTYPE svg PUBLIC "-//W3C//DTD SVG 1.1//EN" "http://www.w3.org/Graphics/SVG/1.1/DTD/svg11.dtd"><svg t="1589922823854" class="icon" viewBox="0 0 1089 1024" version="1.1" xmlns="http://www.w3.org/2000/svg" p-id="36263" xmlns:xlink="http://www.w3.org/1999/xlink" width="212.6953125" height="200"><defs><style type="text/css"></style></defs><path d="M544.071588 453.011186h151.480985v181.834452H544.071588zM392.590604 453.011186H544.071588v181.834452h-151.480984z" fill="#FFC824" p-id="36264"></path><path d="M635.131991 994.505593h-182.120805a28.635347 28.635347 0 0 1 0-57.270694h182.120805a28.635347 28.635347 0 0 1 0 57.270694zM921.199105 923.203579a28.635347 28.635347 0 0 1-20.903803-48.107382 486.800895 486.800895 0 1 0-712.447427 0 28.635347 28.635347 0 0 1 0 40.375839 28.635347 28.635347 0 0 1-40.662193 0 544.071588 544.071588 0 1 1 796.635347 0 28.635347 28.635347 0 0 1-22.621924 7.731543z" fill="#6B400D" p-id="36265"></path><path d="M756.259508 295.516779H658.612975a119.123043 119.123043 0 0 0-231.373601 0h-95.355705a89.342282 89.342282 0 0 0-89.342282 89.342281V801.789709a89.342282 89.342282 0 0 0 89.342282 89.342282H343.624161l-51.829978 89.914989a28.635347 28.635347 0 0 0 10.595079 38.944071 28.635347 28.635347 0 0 0 14.317673 4.008949 28.635347 28.635347 0 0 0 24.626398-14.317673l68.438479-118.550336h270.317673l68.438479 118.550336a28.635347 28.635347 0 0 0 24.626398 14.317673 28.635347 28.635347 0 0 0 14.317674-4.008949 28.635347 28.635347 0 0 0 10.595078-38.944071L744.519016 891.131991h10.881431A89.342282 89.342282 0 0 0 845.60179 801.789709V384.85906a89.342282 89.342282 0 0 0-89.342282-89.342281zM544.071588 262.013423a61.852349 61.852349 0 0 1 55.26622 33.503356h-110.532439A61.852349 61.852349 0 0 1 544.071588 262.013423zM788.331096 801.789709a32.071588 32.071588 0 0 1-32.071588 32.071589H331.883669A32.071588 32.071588 0 0 1 299.812081 801.789709V384.85906a32.071588 32.071588 0 0 1 32.071588-32.071588h424.375839a32.071588 32.071588 0 0 1 32.071588 32.071588z" fill="#6B400D" p-id="36266"></path><path d="M695.552573 481.646532a28.635347 28.635347 0 0 0 0-57.270693H392.590604a28.635347 28.635347 0 0 0 0 57.270693H515.436242v124.850112h-122.845638a28.635347 28.635347 0 0 0 0 57.270694h302.961969a28.635347 28.635347 0 0 0 0-57.270694H572.706935v-124.850112z" fill="#6B400D" p-id="36267"></path><path d="M695.552573 748.814318m-28.635347 0a28.635347 28.635347 0 1 0 57.270693 0 28.635347 28.635347 0 1 0-57.270693 0Z" fill="#6B400D" p-id="36268"></path><path d="M392.590604 748.814318m-28.635347 0a28.635347 28.635347 0 1 0 57.270694 0 28.635347 28.635347 0 1 0-57.270694 0Z" fill="#6B400D" p-id="36269"></path></svg>