<?xml version="1.0" standalone="no"?><!DOCTYPE svg PUBLIC "-//W3C//DTD SVG 1.1//EN" "http://www.w3.org/Graphics/SVG/1.1/DTD/svg11.dtd"><svg t="1589923011245" class="icon" viewBox="0 0 1025 1024" version="1.1" xmlns="http://www.w3.org/2000/svg" p-id="42110" xmlns:xlink="http://www.w3.org/1999/xlink" width="200.1953125" height="200"><defs><style type="text/css"></style></defs><path d="M742.481955 768l-512 0c-70.5536 0-128-57.4464-128-128l0-512c0-70.5536 57.4464-128 128-128l512 0c70.5536 0 128 57.4464 128 128l0 512c0 70.5536-57.4464 128-128 128zM230.481955 51.2c-42.3424 0-76.8 34.4576-76.8 76.8l0 512c0 42.3424 34.4576 76.8 76.8 76.8l512 0c42.3424 0 76.8-34.4576 76.8-76.8l0-512c0-42.3424-34.4576-76.8-76.8-76.8l-512 0z" p-id="42111"></path><path d="M970.168355 986.9312l-102.4-204.8c-6.2976-12.6464-21.7088-17.7664-34.3552-11.4688s-17.7664 21.7088-11.4688 34.3552l7.0656 14.1312-685.1584 0 7.0656-14.1312c6.2976-12.6464 1.1776-28.0064-11.4688-34.3552s-28.0064-1.1776-34.3552 11.4688l-102.4 204.8c-6.2976 12.6464-1.1776 28.0064 11.4688 34.3552 3.6864 1.8432 7.5776 2.7136 11.4176 2.7136 9.3696 0 18.432-5.1712 22.9376-14.1824l18.5344-37.0688 838.7584 0 18.5344 37.0688c4.5056 8.96 13.5168 14.1824 22.9376 14.1824 3.84 0 7.7312-0.8704 11.4176-2.7136 12.6464-6.2976 17.7664-21.7088 11.4688-34.3552zM92.702755 921.6l25.6-51.2 736.3584 0 25.6 51.2-787.5584 0z" p-id="42112"></path><path d="M281.681955 665.6c-42.3424 0-76.8-34.4576-76.8-76.8s34.4576-76.8 76.8-76.8 76.8 34.4576 76.8 76.8-34.4576 76.8-76.8 76.8zM281.681955 563.2c-14.1312 0-25.6 11.4688-25.6 25.6s11.4688 25.6 25.6 25.6 25.6-11.4688 25.6-25.6-11.4688-25.6-25.6-25.6z" p-id="42113"></path><path d="M691.281955 665.6c-42.3424 0-76.8-34.4576-76.8-76.8s34.4576-76.8 76.8-76.8 76.8 34.4576 76.8 76.8-34.4576 76.8-76.8 76.8zM691.281955 563.2c-14.1312 0-25.6 11.4688-25.6 25.6s11.4688 25.6 25.6 25.6 25.6-11.4688 25.6-25.6-11.4688-25.6-25.6-25.6z" p-id="42114"></path><path d="M640.081955 153.6l-307.2 0c-14.1312 0-25.6-11.4688-25.6-25.6s11.4688-25.6 25.6-25.6l307.2 0c14.1312 0 25.6 11.4688 25.6 25.6s-11.4688 25.6-25.6 25.6z" p-id="42115"></path><path d="M742.481955 204.8l-512 0c-14.1312 0-25.6 11.4688-25.6 25.6l0 204.8c0 14.1312 11.4688 25.6 25.6 25.6l512 0c14.1312 0 25.6-11.4688 25.6-25.6l0-204.8c0-14.1312-11.4688-25.6-25.6-25.6zM256.081955 256l204.8 0 0 153.6-204.8 0 0-153.6zM716.881955 409.6l-204.8 0 0-153.6 204.8 0 0 153.6z" p-id="42116"></path></svg>