<?xml version="1.0" standalone="no"?><!DOCTYPE svg PUBLIC "-//W3C//DTD SVG 1.1//EN" "http://www.w3.org/Graphics/SVG/1.1/DTD/svg11.dtd"><svg t="1588826531476" class="icon" viewBox="0 0 1024 1024" version="1.1" xmlns="http://www.w3.org/2000/svg" p-id="2169" xmlns:xlink="http://www.w3.org/1999/xlink" width="200" height="200"><defs><style type="text/css"></style></defs><path d="M457.822077 856.864422C457.822077 856.864422 457.822077 856.864422 457.822077 856.864422c-4.073782 0-7.979742-1.61887-10.859325-4.500501L159.755494 564.880371c-5.988388-5.993504-5.987365-15.705704 0.001023-21.698185l370.976126-371.251396c2.87856-2.880607 6.78452-4.499477 10.857279-4.499477l311.605947 0c4.296863 0 8.396227 1.801019 11.30344 4.965082 2.907213 3.164063 4.355191 7.401574 3.990894 11.683087l-24.39869 287.482527c-0.305969 3.607154-1.877767 6.991228-4.437056 9.55154L468.680379 852.363921C465.801818 855.245552 461.894835 856.864422 457.822077 856.864422zM192.313004 554.032302l265.510096 265.764899 356.154559-356.418572 22.511713-265.249153L547.95284 198.129476 192.313004 554.032302z" p-id="2170"></path><path d="M661.756769 415.401941c-34.841529 0-63.186088-28.345582-63.186088-63.187111 0-34.840506 28.344558-63.186088 63.186088-63.186088s63.186088 28.345582 63.186088 63.186088C724.942857 387.05636 696.597275 415.401941 661.756769 415.401941zM661.756769 319.728952c-17.913998 0-32.486902 14.573927-32.486902 32.486902 0 17.913998 14.572904 32.487925 32.486902 32.487925s32.486902-14.573927 32.486902-32.487925C694.243671 334.301855 679.669744 319.728952 661.756769 319.728952z" p-id="2171"></path></svg>