<?xml version="1.0" standalone="no"?><!DOCTYPE svg PUBLIC "-//W3C//DTD SVG 1.1//EN" "http://www.w3.org/Graphics/SVG/1.1/DTD/svg11.dtd"><svg t="1588826556244" class="icon" viewBox="0 0 1024 1024" version="1.1" xmlns="http://www.w3.org/2000/svg" p-id="2300" xmlns:xlink="http://www.w3.org/1999/xlink" width="200" height="200"><defs><style type="text/css"></style></defs><path d="M890.660571 634.660571l-256 256a18.285714 18.285714 0 0 1-25.892571 0l-438.857143-438.857142A18.285714 18.285714 0 0 1 164.571429 438.857143V182.857143a18.285714 18.285714 0 0 1 18.285714-18.285714h256a18.285714 18.285714 0 0 1 12.946286 5.339428l438.857142 438.857143a18.285714 18.285714 0 0 1 0 25.892571zM851.858286 621.714286l-420.571429-420.571429H201.142857v230.144l420.571429 420.571429L851.858286 621.714286zM329.142857 402.285714a73.142857 73.142857 0 1 1 0-146.285714 73.142857 73.142857 0 0 1 0 146.285714z m0-36.571428a36.571429 36.571429 0 1 0 0-73.142857 36.571429 36.571429 0 0 0 0 73.142857z" p-id="2301"></path></svg>