<?xml version="1.0" standalone="no"?><!DOCTYPE svg PUBLIC "-//W3C//DTD SVG 1.1//EN" "http://www.w3.org/Graphics/SVG/1.1/DTD/svg11.dtd"><svg t="1588826677468" class="icon" viewBox="0 0 1024 1024" version="1.1" xmlns="http://www.w3.org/2000/svg" p-id="5180" xmlns:xlink="http://www.w3.org/1999/xlink" width="200" height="200"><defs><style type="text/css"></style></defs><path d="M214.186667 170.666667c11.946667 0 21.9136 3.976533 29.866666 11.946666 8.533333 8.533333 12.8 18.773333 12.8 30.72s-4.266667 21.896533-12.8 29.866667c-7.953067 8.533333-17.92 12.8-29.866666 12.8s-22.186667-4.266667-30.72-12.8c-7.970133-7.970133-11.946667-17.92-11.946667-29.866667s3.976533-22.186667 11.946667-30.72c8.533333-7.970133 18.773333-11.946667 30.72-11.946666z" p-id="5181"></path><path d="M597.333333 955.733333a17.015467 17.015467 0 0 1-12.066133-5.000533l-512-512A17.015467 17.015467 0 0 1 68.266667 426.666667V85.333333a17.066667 17.066667 0 0 1 17.066666-17.066666h341.333334c4.522667 0 8.874667 1.792 12.066133 5.000533l512 512a17.0496 17.0496 0 0 1 0 24.132267l-341.333333 341.333333A17.015467 17.015467 0 0 1 597.333333 955.733333zM102.4 419.601067l494.933333 494.933333L914.5344 597.333333l-494.933333-494.933333H102.4v317.201067zM597.333333 785.066667a17.015467 17.015467 0 0 1-12.066133-5.000534l-341.333333-341.333333a17.0496 17.0496 0 0 1 0-24.132267l170.666666-170.666666a17.0496 17.0496 0 0 1 24.132267 0l341.333333 341.333333a17.0496 17.0496 0 0 1 0 24.132267l-170.666666 170.666666A17.015467 17.015467 0 0 1 597.333333 785.066667zM280.132267 426.666667L597.333333 743.867733 743.867733 597.333333 426.666667 280.132267 280.132267 426.666667z" p-id="5182"></path></svg>