<svg id="Layer_1" enable-background="new 0 0 512 512" height="512" viewBox="0 0 512 512" width="512" xmlns="http://www.w3.org/2000/svg"><g><g><g><path d="m398.509 318.786h15v15h-15z"/></g><g><path d="m98.509 318.786h15v15h-15z"/></g></g><path d="m169.5 326.286c0 47.696 38.804 86.5 86.5 86.5s86.5-38.804 86.5-86.5-38.804-86.5-86.5-86.5-86.5 38.804-86.5 86.5zm158 0c0 39.425-32.075 71.5-71.5 71.5s-71.5-32.075-71.5-71.5 32.075-71.5 71.5-71.5 71.5 32.075 71.5 71.5z"/><path d="m248.5 267.764v5.442c-13.355 3.357-23.273 15.463-23.273 29.845v3.757c0 13.618 10.146 24.905 23.273 26.717v29.868c-4.905-2.663-8.273-7.778-8.273-14.143h-15c0 14.898 10.072 26.796 23.273 30.115v5.442h15v-5.442c13.355-3.357 23.273-15.463 23.273-29.844v-3.758c0-13.618-10.146-24.905-23.273-26.716v-29.868c4.905 2.662 8.273 7.778 8.273 14.143h15c0-14.898-10.073-26.796-23.273-30.115v-5.442h-15zm0 50.429c-4.796-1.565-8.273-6.073-8.273-11.385v-3.757c0-5.984 3.35-11.2 8.273-13.873zm23.273 27.57v3.758c0 5.984-3.35 11.2-8.273 13.872v-29.014c4.796 1.564 8.273 6.073 8.273 11.384z"/><path d="m0 177.785v297h83.49v-15h-68.49v-267h482v267h-398.51v15h413.51v-297z"/><path d="m66.076 444.785h379.848l-.788-8.216c-1.655-17.275 11.997-32.284 29.364-32.284h7.5v-156h-7.5c-16.267 0-29.5-13.234-29.5-29.5 0-1.755.06-1.992.924-11h-77.704v15h61.958c1.806 20.173 17.129 36.512 36.822 39.868v127.265c-19.693 3.355-35.017 19.695-36.822 39.868h-348.356c-1.805-20.173-17.129-36.513-36.822-39.868v-127.265c19.693-3.355 35.017-19.695 36.822-39.868h271.398v-15h-287.144l.788 8.216c1.655 17.275-11.997 32.284-29.364 32.284h-7.5v156h7.5c16.267 0 29.5 13.234 29.5 29.5 0 1.755-.06 1.992-.924 11z"/><path d="m371.411 104.39-3.552-7.456-86.489 51.92 7.721 12.86 72.985-43.813c11.999 16.504 33.605 22.484 52.091 15.247l15.603 25.997 12.861-7.72-23-38.321-6.431 3.86c-15.034 9.025-34.396 2.968-41.789-12.574z"/><path d="m477.621 151.426-68.55-114.211-186.001 111.64 7.719 12.861 173.14-103.92 60.831 101.349z"/></g></svg>