<?xml version="1.0" encoding="iso-8859-1"?>
<!-- Generator: Adobe Illustrator 19.0.0, SVG Export Plug-In . SVG Version: 6.00 Build 0)  -->
<svg version="1.1" id="Capa_1" xmlns="http://www.w3.org/2000/svg" xmlns:xlink="http://www.w3.org/1999/xlink" x="0px" y="0px"
	 viewBox="0 0 480.608 480.608" style="enable-background:new 0 0 480.608 480.608;" xml:space="preserve">
<g>
	<g>
		<path d="M409.792,69.952c-94.083-93.606-246.234-93.219-339.84,0.864s-93.219,246.234,0.864,339.84
			c93.745,93.269,245.231,93.269,338.976,0c0.16-0.136,0.368-0.192,0.52-0.344c0.152-0.152,0.208-0.36,0.344-0.52
			C504.262,315.709,503.875,163.558,409.792,69.952z M76.769,393.457c-38.699-41.485-60.202-96.117-60.161-152.849
			c0.155-120.526,95.555-219.371,216-223.8v223.8c0.005,1.049,0.214,2.087,0.616,3.056c0.399,0.976,0.989,1.863,1.736,2.608
			l158.176,158.176C302.739,488.775,161.097,483.855,76.769,393.457z M404.408,393.136L259.92,248.608h204.488
			C462.505,302.446,441.194,353.78,404.408,393.136z M248.608,232.608v-215.8c117.344,4.328,211.472,98.456,215.8,215.8H248.608z"/>
	</g>
</g>
<g>
</g>
<g>
</g>
<g>
</g>
<g>
</g>
<g>
</g>
<g>
</g>
<g>
</g>
<g>
</g>
<g>
</g>
<g>
</g>
<g>
</g>
<g>
</g>
<g>
</g>
<g>
</g>
<g>
</g>
</svg>
