<?xml version="1.0" standalone="no"?><!DOCTYPE svg PUBLIC "-//W3C//DTD SVG 1.1//EN" "http://www.w3.org/Graphics/SVG/1.1/DTD/svg11.dtd"><svg t="1588827042963" class="icon" viewBox="0 0 1024 1024" version="1.1" xmlns="http://www.w3.org/2000/svg" p-id="12960" xmlns:xlink="http://www.w3.org/1999/xlink" width="200" height="200"><defs><style type="text/css"></style></defs><path d="M512 512V72C269 72 72 269 72 512s197 440 440 440 440-197 440-440H512z m0 400.9c-221.4 0-400.9-179.5-400.9-400.9 0-208.2 158.7-379.3 361.8-399v438.1H911c-19.7 203.1-190.8 361.8-399 361.8z m39.1-839.1v399.1h399.1C931.5 261.1 762.9 92.5 551.1 73.8z m39.1 45c158.6 31.4 283.6 156.3 315 315h-315v-315z" p-id="12961"></path></svg>