<?xml version="1.0" standalone="no"?><!DOCTYPE svg PUBLIC "-//W3C//DTD SVG 1.1//EN" "http://www.w3.org/Graphics/SVG/1.1/DTD/svg11.dtd"><svg t="1589922365391" class="icon" viewBox="0 0 1024 1024" version="1.1" xmlns="http://www.w3.org/2000/svg" p-id="26477" xmlns:xlink="http://www.w3.org/1999/xlink" width="200" height="200"><defs><style type="text/css"></style></defs><path d="M149.333333 192h725.333334a64 64 0 0 1 64 64v512a64 64 0 0 1-64 64H149.333333a64 64 0 0 1-64-64V256a64 64 0 0 1 64-64z m0 64v512h725.333334V256H149.333333z m128 85.333333h298.666667a64 64 0 0 1 64 64v213.333334a64 64 0 0 1-64 64H277.333333a64 64 0 0 1-64-64V405.333333a64 64 0 0 1 64-64z m0 64v213.333334h298.666667V405.333333H277.333333z m480 42.666667a42.666667 42.666667 0 1 1 0-85.333333 42.666667 42.666667 0 0 1 0 85.333333z m-42.666666 149.333333h85.333333a32 32 0 0 1 0 64h-85.333333a32 32 0 0 1 0-64z m0-106.666666h85.333333a32 32 0 0 1 0 64h-85.333333a32 32 0 0 1 0-64z" p-id="26478"></path></svg>