<?xml version="1.0" standalone="no"?><!DOCTYPE svg PUBLIC "-//W3C//DTD SVG 1.1//EN" "http://www.w3.org/Graphics/SVG/1.1/DTD/svg11.dtd"><svg t="1589922415880" class="icon" viewBox="0 0 1024 1024" version="1.1" xmlns="http://www.w3.org/2000/svg" p-id="28193" xmlns:xlink="http://www.w3.org/1999/xlink" width="200" height="200"><defs><style type="text/css"></style></defs><path d="M216.32512 359.79776V270.00832c0-41.80992 33.13152-71.60832 73.92768-71.60832h402.36032c18.2272 0 37.15072-1.5104 54.89664 3.13856 48.88064 12.81024 49.32608 61.99808 49.32608 102.36416v65.024c0 33.01888 51.2 33.01888 51.2 0 0-76.68224 13.62944-167.7056-68.08064-209.32608-23.56224-12.00128-48.67072-12.39552-74.2144-12.39552H374.36928c-58.80832 0-119.936-8.62208-168.80128 30.99136-52.91008 42.89536-40.43776 121.6-40.43776 181.6064-0.00512 33.01376 51.19488 33.01376 51.19488-0.00512z" p-id="28194"></path><path d="M188.56448 606.28992c-44.89216 5.7856-86.86592-10.2656-112.39424-48.56832-26.112-39.17312-21.53984-92.60544 7.9104-128.51712 64.74752-78.95552 190.23872-28.288 192.79872 69.71392 0.86016 32.95744 52.06016 33.03424 51.2 0-1.6896-64.60416-38.82496-123.264-99.42528-147.9936-63.1296-25.76384-135.2448-8.18176-180.78208 42.07616-44.66688 49.29536-50.00704 120.15104-22.50752 178.87232 28.28288 60.3904 98.6112 93.94688 163.19488 85.62176 32.27648-4.16256 32.68096-55.41376 0.00512-51.20512zM752.256 498.91328c2.65728-101.6576 125.66016-143.80544 192.7936-69.71392 70.08768 77.3632-11.18208 195.0464-106.68544 176.30208-32.24576-6.32832-45.99296 43.01312-13.60896 49.37216 68.52608 13.45024 133.62688-13.11744 172.416-71.31136 37.11488-55.69024 30.04416-134.51776-11.68896-185.41056-43.12576-52.58752-114.61632-72.23296-178.7392-49.792-63.96416 22.38464-103.95136 84.14208-105.68704 150.5536-0.86016 33.03424 50.33984 32.95744 51.2 0z" p-id="28195"></path><path d="M698.77248 481.48992v215.20896c0 4.96128 25.24672-15.85664 14.37184-15.85664H315.60192c-7.69024 0 13.46048 27.8784 13.46048 8.37632v-46.84288-133.51936c0-33.01888-51.2-33.01888-51.2 0v182.43584c0 26.80832 17.44896 40.75008 42.9056 40.75008h389.18656c27.23328 0 40.01792-18.6368 40.01792-44.00128V481.4848c0-33.01376-51.2-33.01376-51.2 0.00512z" p-id="28196"></path><path d="M162.84672 631.18336v168.76032c0 58.17344 44.928 109.03552 102.71744 115.7376 16.41472 1.90464 33.16736 1.08544 49.664 1.08544h414.84288c70.79936 0 127.08864-48.26112 127.08864-121.5488v-164.03456c0-33.01376-51.2-33.01376-51.2 0v168.76032c0 78.29504-90.40384 65.62304-142.45376 65.62304H279.66976c-35.99872 0-65.62304-29.91104-65.62304-65.82272v-45.06112-123.49952c0-33.01376-51.2-33.01376-51.2 0z" p-id="28197"></path><path d="M289.3056 941.3376v-51.58912c0-33.01376-51.2-33.01376-51.2 0v51.58912c0 33.01888 51.2 33.01888 51.2 0zM784.1792 941.3376v-51.58912c0-33.01376-51.2-33.01376-51.2 0v51.58912c0 33.01888 51.2 33.01888 51.2 0z" p-id="28198"></path></svg>