<?xml version="1.0" standalone="no"?><!DOCTYPE svg PUBLIC "-//W3C//DTD SVG 1.1//EN" "http://www.w3.org/Graphics/SVG/1.1/DTD/svg11.dtd"><svg t="1589860538222" class="icon" viewBox="0 0 1024 1024" version="1.1" xmlns="http://www.w3.org/2000/svg" p-id="22167" xmlns:xlink="http://www.w3.org/1999/xlink" width="200" height="200"><defs><style type="text/css"></style></defs><path d="M426.666667 96c33.621333 0 63.957333 14.144 85.333333 36.821333A116.885333 116.885333 0 0 1 597.333333 96h5.226667a112.106667 112.106667 0 0 1 101.376 160H821.333333A117.333333 117.333333 0 0 1 874.666667 477.866667V896a42.666667 42.666667 0 0 1-42.666667 42.666667H192a42.666667 42.666667 0 0 1-42.666667-42.666667V477.866667A117.333333 117.333333 0 0 1 202.666667 256h117.397333a112.106667 112.106667 0 0 1 96.746667-159.914667l4.629333-0.085333H426.666667zM405.333333 490.666667h-192v384h192V490.666667z m149.333334 384V320.192h-85.333334V874.666667h85.333334z m256-384h-192v384h192V490.666667zM202.666667 320a53.333333 53.333333 0 0 0-3.498667 106.56L202.666667 426.666667H405.333333v-106.645334L202.666667 320z m618.666666 0l-202.666666 0.021333V426.666667h202.666666a53.333333 53.333333 0 1 0 0-106.666667zM426.666667 160h-5.226667a48.106667 48.106667 0 0 0-4.117333 96.021333L480 256v-42.666667l-0.106667-3.498666A53.333333 53.333333 0 0 0 426.666667 160z m175.893333 0H597.333333a53.333333 53.333333 0 0 0-53.333333 53.333333v42.666667l62.677333 0.021333a48.106667 48.106667 0 0 0-4.117333-96.021333z" fill="#4E4E4E" p-id="22168"></path></svg>