<?xml version="1.0" standalone="no"?><!DOCTYPE svg PUBLIC "-//W3C//DTD SVG 1.1//EN" "http://www.w3.org/Graphics/SVG/1.1/DTD/svg11.dtd"><svg t="1589921658788" class="icon" viewBox="0 0 1024 1024" version="1.1" xmlns="http://www.w3.org/2000/svg" p-id="20915" xmlns:xlink="http://www.w3.org/1999/xlink" width="200" height="200"><defs><style type="text/css"></style></defs><path d="M740.8 316.8c-12.8 0-22.4-11.2-22.4-24 0-6.4 3.2-11.2 6.4-16l99.2-99.2c11.2-6.4 25.6-4.8 32 6.4 4.8 8 4.8 17.6 0 25.6l-99.2 99.2c-3.2 4.8-9.6 8-16 8zM195.2 867.2c-12.8 0-22.4-11.2-22.4-22.4 0-6.4 3.2-12.8 6.4-16l158.4-155.2c9.6-8 24-6.4 32 3.2 8 8 6.4 20.8 0 30.4l-158.4 155.2c-4.8 3.2-11.2 4.8-16 4.8z" fill="#222222" p-id="20916"></path><path d="M691.2 304s72 107.2-32 179.2c0 0-25.6 35.2 6.4 43.2 32 9.6 65.6-3.2 83.2-30.4 16-28.8 28.8-48 28.8-76.8s3.2-48-8-68.8c-16-20.8-33.6-40-54.4-56l-24 9.6z" fill="#FFB53B" p-id="20917"></path><path d="M579.2 441.6s72 107.2-32 179.2c0 0-25.6 35.2 6.4 43.2 32 9.6 65.6-3.2 83.2-30.4 16-28.8 28.8-48 28.8-76.8s3.2-48-8-68.8c-16-20.8-33.6-40-54.4-56l-24 9.6zM435.2 553.6c4.8 4.8 8 9.6 11.2 16 8 12.8 14.4 25.6 19.2 40 6.4 17.6 8 36.8 4.8 56-1.6 20.8-9.6 41.6-24 57.6-9.6 11.2-20.8 20.8-32 30.4-4.8 3.2-12.8 6.4-19.2 9.6-11.2 4.8-22.4 8-35.2 11.2-27.2 4.8-48 6.4-68.8 9.6-6.4 1.6 4.8-3.2 0 0s4.8 6.4 8 8c49.6 9.6 144 24 168-9.6s57.6-62.4 57.6-97.6 8-59.2-9.6-84.8-44.8-57.6-44.8-57.6l-35.2 11.2z" fill="#FFB53B" p-id="20918"></path><path d="M651.2 569.6c-12.8 0-22.4-9.6-20.8-22.4 0-11.2 8-20.8 19.2-20.8 64-6.4 112-62.4 107.2-128-4.8-60.8-57.6-108.8-118.4-107.2-59.2 1.6-108.8 46.4-116.8 105.6-1.6 11.2-12.8 20.8-25.6 17.6s-20.8-12.8-17.6-25.6c9.6-68.8 70.4-142.4 160-142.4 89.6-1.6 161.6 70.4 163.2 160 1.6 84.8-64 155.2-147.2 163.2h-3.2z" fill="#222222" p-id="20919"></path><path d="M532.8 707.2c-12.8 0-22.4-9.6-22.4-22.4 0-11.2 8-20.8 17.6-22.4 57.6-11.2 100.8-62.4 102.4-121.6 0-68.8-56-123.2-124.8-124.8-67.2 0-113.6 56-121.6 107.2-1.6 12.8-14.4 20.8-27.2 19.2-12.8-1.6-20.8-14.4-19.2-27.2 12.8-70.4 75.2-145.6 168-145.6 94.4 0 169.6 76.8 169.6 169.6 0 89.6-70.4 152-139.2 166.4 0 1.6-1.6 1.6-3.2 1.6z" fill="#222222" p-id="20920"></path><path d="M380.8 835.2c-94.4 0-169.6-76.8-169.6-169.6 0-12.8 9.6-22.4 22.4-22.4s22.4 9.6 22.4 22.4c0 68.8 56 124.8 123.2 124.8 68.8 0 124.8-56 124.8-123.2s-56-124.8-123.2-124.8c-36.8 0-72 16-96 44.8-8 9.6-22.4 11.2-32 3.2s-11.2-22.4-3.2-32c59.2-72 168-83.2 240-22.4 72 59.2 83.2 168 22.4 240-32 36.8-80 59.2-131.2 59.2z" fill="#222222" p-id="20921"></path></svg>