<?xml version="1.0" standalone="no"?><!DOCTYPE svg PUBLIC "-//W3C//DTD SVG 1.1//EN" "http://www.w3.org/Graphics/SVG/1.1/DTD/svg11.dtd"><svg t="1589860379184" class="icon" viewBox="0 0 1024 1024" version="1.1" xmlns="http://www.w3.org/2000/svg" p-id="17619" xmlns:xlink="http://www.w3.org/1999/xlink" width="200" height="200"><defs><style type="text/css"></style></defs><path d="M372.852046 351.633198c78.781432 12.592135 110.504812 49.488472 110.530395 124.841733 0.040933 121.843362 0.112567 243.686724-0.0307 365.530085-0.086983 74.989977-42.130695 117.002988-116.936471 117.161605-50.271324 0.10745-100.542647 0.1842-150.813971-0.020467-70.61522-0.29165-113.185949-42.719113-113.206416-112.602648-0.035817-126.105551-0.025583-252.205986-0.005117-378.311538 0.010233-62.535992 30.700045-101.832049 91.496367-113.134782 16.659891-3.095588 20.620197-9.440264 20.502513-24.749353-0.475851-60.484205-0.706101-120.993994 0.440034-181.467966 0.690751-36.41537 24.636786-64.756628 57.542118-72.139989 38.226673-8.575546 75.27651 6.605626 90.017649 40.81571 7.15311 16.603608 9.639814 36.220936 10.008215 54.564213C373.604197 231.616489 372.852046 291.15411 372.852046 351.633198zM260.305681 398.982901c-15.119772 0-26.913706-0.102333-38.70764 0.020467-50.460641 0.521901-73.669875 23.224584-73.767091 73.367991-0.235367 123.623964-0.240484 247.247929 0.010233 370.871893 0.0921 44.663449 21.884015 69.627702 65.851596 71.178054 52.788727 1.862469 105.746305 1.790836 158.540149 0.010233 42.811213-1.448019 65.032929-26.279238 65.135262-69.151851 0.296767-126.182302 0.32235-252.364603-0.01535-378.546905-0.112567-41.859511-24.611203-66.15348-66.731664-67.611732-14.137371-0.491201-28.300325-0.07675-43.926648-0.07675 0-45.27745 0.005117-86.957877 0-128.638305-0.005117-40.171009-0.035817-39.009524-41.225044-39.930525-21.096048-0.475851-26.038755 7.470344-25.547554 26.929056C261.098766 303.295978 260.305681 349.248828 260.305681 398.982901zM260.346615 184.706821c19.039145 0 35.719502 0.455384 52.33846-0.317234 4.211023-0.194434 11.957668-4.671524 11.763234-6.518643-1.601519-15.293739-1.268935-32.460181-8.606246-44.868116-4.425923-7.485694-24.242802-13.247069-32.178764-9.440264-10.345915 4.963174-17.514376 19.417778-22.69245 31.257762C257.639894 162.444171 260.346615 172.703103 260.346615 184.706821z" p-id="17620"></path><path d="M550.042472 355.127887c127.73777 0 252.64602 0 381.002908 0 0 19.632679 0 38.912307 0 58.197052 0 54.548863 0.2149 109.102843-0.056283 163.651706-0.368401 75.097427-56.580183 141.716524-130.444491 155.106861-37.530805 6.80006-37.530805 6.80006-37.535922 45.6612 0 37.505222 0.721451 75.025793-0.29165 112.505431-0.516784 19.085195 6.748893 26.013171 25.481037 25.06147 21.254664-1.079618 42.893079-2.21552 63.774227 0.777734 8.580663 1.228002 15.626323 13.175436 23.367851 20.24668-7.501044 7.547094-14.858822 21.479798-22.5236 21.653765-74.115025 1.657802-148.296567 1.657802-222.416709 0.066517-7.982012-0.173967-20.778814-12.438635-22.395683-20.819747-2.844871-14.741138 8.391346-22.441733 23.961385-22.206366 20.451347 0.312117 40.95386-0.787968 61.35404 0.281417 18.39956 0.967051 26.258772-5.249708 25.834088-24.662369-0.967051-44.300165-0.593534-88.641263-0.143267-132.961895 0.143267-13.978754-3.187688-19.960146-19.243812-22.590116-99.903063-16.383591-149.688303-76.217978-149.729236-177.088093C550.027122 500.042332 550.042472 442.080648 550.042472 384.118963 550.042472 374.944766 550.042472 365.770569 550.042472 355.127887zM742.081487 398.993134c-41.721361 0-83.452956 0.434917-125.164083-0.225134-15.442123-0.2456-21.270014 5.572058-21.121631 20.916964 0.521901 52.788727-1.120552 105.628621 0.680518 158.361065 1.882936 55.183331 36.967971 96.868875 91.440084 107.849258 24.652136 4.968291 50.716474 3.868206 76.141228 3.883556 69.213251 0.035817 119.960426-49.048439 121.280528-117.755139 0.967051-50.220157-0.440034-100.486364 0.726568-150.696287 0.434917-18.701444-6.76936-23.081317-23.930685-22.651517C822.136971 399.663419 782.098996 398.982901 742.081487 398.993134z" p-id="17621"></path><path d="M294.024564 634.482946c16.951541-0.01535 34.419867-2.49182 50.649958 0.915885 9.767731 2.051786 17.616709 13.262419 26.330405 20.359246-7.971778 7.997362-15.503523 22.298466-23.997202 22.897117-36.256753 2.563454-72.90749 2.558337-109.164243-0.040933-8.289012-0.593534-15.570039-15.222106-23.316684-23.388318 7.854095-6.90751 14.945805-18.29211 23.726018-19.796412C256.365842 632.328826 275.379403 634.498296 294.024564 634.482946z" p-id="17622"></path><path d="M292.924479 746.312977c17.89301 0.010233 36.220936-2.29227 53.505062 0.956818 8.959296 1.683386 20.681597 11.947434 22.99945 20.533213 4.047289 15.002089-7.813161 23.879518-22.385449 24.176285-36.625154 0.747034-73.383341 1.724319-109.824294-0.997751-8.104812-0.603768-15.099305-16.07659-22.610583-24.698186 8.212262-6.656793 15.682606-17.473442 24.790286-19.085195C256.749593 744.128157 275.026353 746.30786 292.924479 746.312977z" p-id="17623"></path></svg>