<?xml version="1.0" standalone="no"?><!DOCTYPE svg PUBLIC "-//W3C//DTD SVG 1.1//EN" "http://www.w3.org/Graphics/SVG/1.1/DTD/svg11.dtd"><svg t="1589859403741" class="icon" viewBox="0 0 1024 1024" version="1.1" xmlns="http://www.w3.org/2000/svg" p-id="3571" xmlns:xlink="http://www.w3.org/1999/xlink" width="200" height="200"><defs><style type="text/css"></style></defs><path d="M277.216 67C173.571 67 89.25 168.052 89.25 292.252c0 95.171 48.715 178.449 122.288 211.1l-23.713 366.893c0 47.832 38.909 86.755 86.74 86.755s86.74-38.923 86.711-87.711L337.694 505.38c75.601-30.724 127.489-116.523 127.489-213.128C465.183 168.052 380.861 67 277.216 67zM317.762 481.116l-10.314 3.39 0.102 10.835 24.09 374.904c0 31.478-25.596 57.088-57.074 57.088s-57.074-25.61-57.103-56.132l23.988-371.167 0.391-16.746-9.894-3.665c-66.547-24.568-113.032-101.617-113.032-187.373 0-107.846 71.009-195.585 158.299-195.585s158.299 87.74 158.299 195.585C435.516 380.702 387.09 458.359 317.762 481.116z" p-id="3572"></path><path d="M905.084 111.152l0 221.051c0 65.779-43.965 124.939-106.919 143.886l-10.966 3.303 0.492 13.53c0.087 2.347 0.188 4.693 0.218 8.068l23.944 369.254c0 31.478-25.61 57.088-57.088 57.088s-57.088-25.61-57.117-56.132l24.018-371.167c0-2.81 0.116-5.504 0.261-9.141l0.464-11.487-11.01-3.317c-62.955-18.947-106.918-78.107-106.918-143.886L604.463 111.152l-29.668 0 0 221.051c0 74.891 47.615 142.641 117.117 168.628l-23.901 369.414c0 47.832 38.923 86.755 86.755 86.755s86.755-38.923 86.726-87.711l-23.887-368.458c69.517-25.958 117.146-93.723 117.146-168.628L934.751 111.152 905.084 111.152z" p-id="3573"></path><path d="M684.062 111.152l26.711 0 0 207.667-26.711 0 0-207.667Z" p-id="3574"></path><path d="M798.759 111.152l26.712 0 0 207.667-26.712 0 0-207.667Z" p-id="3575"></path></svg>