<svg height="512pt" viewBox="0 0 512 512" width="512pt" xmlns="http://www.w3.org/2000/svg"><path d="m505.839844 323.601562c-10.867188-16.128906-28.214844-26.316406-47.597656-27.949218-19.378907-1.632813-38.1875 5.511718-51.597657 19.601562l-64.273437 67.519532c-10.097656-29.503907-38.101563-50.773438-70.984375-50.773438h-54.292969c-17.066406-19.15625-41.117188-30-67.09375-30-25.011719 0-49.101562 10.535156-66.089844 28.90625-18.539062 20.050781-41.320312 31.09375-64.140625 31.09375h-19.769531v150h368.59375l143.40625-179.253906zm-151.664063 158.398438h-324.175781v-90.515625c27.667969-2.792969 54.308594-16.820313 75.9375-40.210937 11.328125-12.25 27.386719-19.273438 44.0625-19.273438 19.050781 0 36.550781 8.75 48.011719 24.007812l4.5 5.992188h68.875c19.554687 0 36.238281 12.539062 42.429687 30h-103.816406v30h136.453125l81.921875-86.0625c7.105469-7.46875 17.078125-11.257812 27.351562-10.390625 6.667969.558594 12.875 3.03125 17.992188 7.027344zm0 0"/><path d="m300 302c49.625 0 90-40.375 90-90s-40.375-90-90-90-90 40.375-90 90 40.375 90 90 90zm0-150c33.082031 0 60 26.914062 60 60 0 33.082031-26.917969 60-60 60-33.085938 0-60-26.917969-60-60 0-33.085938 26.914062-60 60-60zm0 0"/><path d="m420 152c33.082031 0 60-26.917969 60-60 0-33.085938-26.917969-60-60-60-33.085938 0-60 26.914062-60 60 0 33.082031 26.914062 60 60 60zm0-90c16.542969 0 30 13.457031 30 30s-13.457031 30-30 30-30-13.457031-30-30 13.457031-30 30-30zm0 0"/><path d="m285 90c24.8125 0 45-20.1875 45-45s-20.1875-45-45-45-45 20.1875-45 45 20.1875 45 45 45zm0-60c8.269531 0 15 6.730469 15 15s-6.730469 15-15 15c-8.273438 0-15-6.730469-15-15s6.726562-15 15-15zm0 0"/><path d="m285 182h30v60h-30zm0 0"/></svg>